<?xml version="1.0" encoding="utf-8"?>
<!-- Generator: Adobe Illustrator 23.0.3, SVG Export Plug-In . SVG Version: 6.00 Build 0)  -->
<svg version="1.1" id="Layer_1" xmlns="http://www.w3.org/2000/svg" xmlns:xlink="http://www.w3.org/1999/xlink" x="0px" y="0px"
	 viewBox="0 0 530 530" style="enable-background:new 0 0 530 530;" xml:space="preserve">
<style type="text/css">
	.st0{fill:url(#SVGID_1_);}
</style>
<linearGradient id="SVGID_1_" gradientUnits="userSpaceOnUse" x1="32.5376" y1="264.4166" x2="496.2765" y2="264.4166">
	<stop  offset="0" style="stop-color:#804D85"/>
	<stop  offset="1" style="stop-color:#41BDBD"/>
</linearGradient>
<path class="st0" d="M485,238.4h-13.7v-23.7c0-6.2-5-11.2-11.2-11.2h-20.3v-10.2c0-6.2-5-11.2-11.2-11.2c-6.2,0-11.2,5-11.2,11.2
	v10.2h-20.9c-6.2,0-11.2,5-11.2,11.2v23.7h-13.9V123.6c0-6.2-5-11.2-11.2-11.2h-25.5V81.3c0-6.2-5-11.2-11.2-11.2H265V27.2
	c0-6.2-5-11.2-11.2-11.2c-6.2,0-11.2,5-11.2,11.2v42.9h-55.8c-6.2,0-11.2,5-11.2,11.2v31.1H150c-6.2,0-11.2,5-11.2,11.2v378
	c0,6.2,5,11.2,11.2,11.2h335c6.2,0,11.2-5,11.2-11.2v-252C496.3,243.4,491.3,238.4,485,238.4z M198,92.6h114.1v19.8H198V92.6z
	 M285.8,490.4H265v-61.2h20.8V490.4z M242.6,490.4h-18.3v-61.2h18.3V490.4z M348.8,490.4h-40.6V418c0-6.2-5-11.2-11.2-11.2h-84
	c-6.2,0-11.2,5-11.2,11.2v72.4h-40.6V134.9h187.6V490.4z M407.7,225.9h41.2v12.5h-41.2V225.9z M473.8,490.4H371.3V260.8h102.5V490.4
	z M192.6,243.2h124.8c6.2,0,11.2-5,11.2-11.2c0-6.2-5-11.2-11.2-11.2H192.6c-6.2,0-11.2,5-11.2,11.2
	C181.4,238.1,186.4,243.2,192.6,243.2z M192.6,300.6h124.8c6.2,0,11.2-5,11.2-11.2s-5-11.2-11.2-11.2H192.6c-6.2,0-11.2,5-11.2,11.2
	S186.4,300.6,192.6,300.6z M192.6,358h124.8c6.2,0,11.2-5,11.2-11.2s-5-11.2-11.2-11.2H192.6c-6.2,0-11.2,5-11.2,11.2
	S186.4,358,192.6,358z M192.6,185.8h124.8c6.2,0,11.2-5,11.2-11.2c0-6.2-5-11.2-11.2-11.2H192.6c-6.2,0-11.2,5-11.2,11.2
	C181.4,180.7,186.4,185.8,192.6,185.8z M394.9,356.8h53.7c6.2,0,11.2-5,11.2-11.2c0-6.2-5-11.2-11.2-11.2h-53.7
	c-6.2,0-11.2,5-11.2,11.2C383.6,351.7,388.7,356.8,394.9,356.8z M394.9,404.2h53.7c6.2,0,11.2-5,11.2-11.2s-5-11.2-11.2-11.2h-53.7
	c-6.2,0-11.2,5-11.2,11.2S388.7,404.2,394.9,404.2z M448.5,432.9h-53.7c-6.2,0-11.2,5-11.2,11.2s5,11.2,11.2,11.2h53.7
	c6.2,0,11.2-5,11.2-11.2S454.7,432.9,448.5,432.9z M394.9,305.6h53.7c6.2,0,11.2-5,11.2-11.2s-5-11.2-11.2-11.2h-53.7
	c-6.2,0-11.2,5-11.2,11.2S388.7,305.6,394.9,305.6z M112.7,192.6l-19.6-3l-8.6-17.9c-1.4-3-4.5-4.9-7.8-4.9c-3.3,0-6.4,1.8-7.9,4.8
	l-9,17.7l-19.7,2.7c-3.3,0.4-6.1,2.7-7.1,5.9c-1.1,3.1-0.2,6.6,2.1,9l14.1,14l-3.5,19.5c-0.6,3.3,0.7,6.6,3.4,8.6
	c2.7,2,6.2,2.3,9.2,0.7l17.7-9.1l17.5,9.4c2.9,1.6,6.5,1.4,9.2-0.6c2.7-1.9,4.1-5.2,3.6-8.5l-3.2-19.6l14.4-13.7
	c2.4-2.3,3.3-5.8,2.3-8.9C118.7,195.4,115.9,193.1,112.7,192.6L112.7,192.6z M87.6,211.8c-2.1,2-3,4.9-2.6,7.7l1.1,6.7l-5.9-3.2
	c-2.5-1.4-5.6-1.4-8.1-0.1l-6,3.1l1.2-6.6c0.5-2.8-0.4-5.7-2.4-7.8l-4.8-4.8l6.7-0.9c2.9-0.4,5.3-2.1,6.6-4.7l3-6l2.9,6.1
	c1.2,2.6,3.7,4.4,6.5,4.8l6.7,1L87.6,211.8z M112.7,298.1L93,295l-8.6-17.9c-1.4-3-4.5-4.9-7.8-4.9c-3.3,0-6.4,1.8-7.9,4.8l-9,17.7
	l-19.7,2.7c-3.3,0.4-6.1,2.7-7.1,5.9c-1.1,3.2-0.2,6.6,2.1,9l14.1,14l-3.5,19.5c-0.6,3.3,0.7,6.6,3.4,8.6c2.7,2,6.2,2.3,9.2,0.8
	l17.7-9.1l17.5,9.4c2.9,1.6,6.5,1.4,9.2-0.6c2.7-1.9,4.1-5.2,3.6-8.5l-3.2-19.6l14.4-13.7c2.4-2.3,3.3-5.8,2.3-8.9
	C118.7,300.9,115.9,298.6,112.7,298.1L112.7,298.1z M87.6,317.3c-2.1,2-3,4.9-2.6,7.7l1.1,6.7l-5.9-3.2c-2.5-1.4-5.6-1.4-8.1-0.1
	l-6,3.1l1.2-6.6c0.5-2.8-0.4-5.7-2.4-7.8l-4.8-4.8l6.7-0.9c2.9-0.4,5.3-2.1,6.6-4.7l3-6l2.9,6.1c1.2,2.6,3.7,4.4,6.5,4.8l6.7,1
	L87.6,317.3z M112.7,403.6l-19.6-3l-8.6-17.9c-1.4-3-4.5-4.9-7.8-4.9h-0.1c-3.3,0-6.3,1.9-7.8,4.8l-9,17.7l-19.7,2.7
	c-3.3,0.4-6.1,2.7-7.1,5.9c-1.1,3.2-0.2,6.6,2.1,9l14.1,14l-3.5,19.5c-0.6,3.3,0.7,6.6,3.4,8.6c2.7,2,6.2,2.3,9.2,0.8l17.7-9.1
	l17.5,9.4c2.9,1.6,6.5,1.4,9.2-0.6c2.7-1.9,4.1-5.2,3.6-8.5l-3.2-19.6l14.4-13.7c2.4-2.3,3.3-5.8,2.3-8.9
	C118.7,406.4,115.9,404.1,112.7,403.6L112.7,403.6z M87.6,422.8c-2.1,2-3,4.9-2.6,7.7l1.1,6.7l-5.9-3.2c-2.5-1.4-5.6-1.4-8.1-0.1
	l-6,3.1l1.2-6.6c0.5-2.8-0.4-5.7-2.4-7.8l-4.8-4.8l6.7-0.9c2.9-0.4,5.3-2.1,6.6-4.7l3-6l2.9,6.1c1.2,2.6,3.7,4.4,6.5,4.8l6.7,1
	L87.6,422.8z M112.7,92.7L93,89.7l-8.6-17.9c-1.4-3-4.5-4.9-7.8-4.9h-0.1c-3.3,0-6.3,1.9-7.8,4.8l-9,17.7L40.1,92
	c-3.3,0.4-6.1,2.7-7.1,5.9c-1.1,3.1-0.2,6.6,2.1,9l14.1,14l-3.5,19.5c-0.6,3.3,0.7,6.6,3.4,8.6c2.7,2,6.2,2.3,9.2,0.7l17.7-9.1
	l17.5,9.4c2.9,1.6,6.5,1.4,9.2-0.6c2.7-1.9,4.1-5.2,3.6-8.5l-3.2-19.6l14.4-13.7c2.4-2.3,3.3-5.8,2.3-8.9
	C118.7,95.6,115.9,93.2,112.7,92.7L112.7,92.7z M87.6,111.9c-2.1,2-3,4.9-2.6,7.7l1.1,6.7l-5.9-3.2c-2.5-1.4-5.6-1.4-8.1-0.1l-6,3.1
	l1.2-6.6c0.5-2.8-0.4-5.7-2.4-7.8L60,107l6.7-0.9c2.9-0.4,5.3-2.1,6.6-4.7l3-6l2.9,6.1c1.2,2.6,3.7,4.4,6.5,4.8l6.7,1L87.6,111.9z"
	/>
</svg>
